<mxfile host="drawio-plugin" modified="2024-02-03T09:29:05.267Z" agent="5.0 (Windows NT 6.2; Win64; x64) AppleWebKit/537.36 (KHTML, like Gecko) Chrome/104.0.5112.102 Safari/537.36" etag="DgZ15ozoTDK4b6O70yZe" version="20.5.3" type="embed"><diagram id="gv3s5oOCquIwlcU58hzb" name="Page-1"><mxGraphModel dx="672" dy="563" grid="0" gridSize="10" guides="1" tooltips="1" connect="1" arrows="1" fold="1" page="0" pageScale="1" pageWidth="850" pageHeight="1100" math="0" shadow="0"><root><mxCell id="0"/><mxCell id="1" parent="0"/><mxCell id="4" value="&lt;b&gt;call&amp;nbsp; method bogoSort(array)&lt;/b&gt;" style="rounded=1;whiteSpace=wrap;html=1;" parent="1" vertex="1"><mxGeometry x="218.25" y="14" width="97.5" height="39" as="geometry"/></mxCell><mxCell id="5" value="&lt;b&gt;while !array.isSorted&lt;/b&gt;" style="rhombus;whiteSpace=wrap;html=1;" parent="1" vertex="1"><mxGeometry x="200" y="121" width="134" height="80" as="geometry"/></mxCell><mxCell id="6" value="&lt;b&gt;call method shuffle&lt;/b&gt;" style="rounded=1;whiteSpace=wrap;html=1;" parent="1" vertex="1"><mxGeometry x="55" y="239" width="120" height="18" as="geometry"/></mxCell><mxCell id="7" value="&lt;b&gt;filling random.indexes&amp;nbsp; &amp;nbsp;of array using digits of array&amp;nbsp;&lt;/b&gt;" style="rounded=1;whiteSpace=wrap;html=1;" parent="1" vertex="1"><mxGeometry x="46" y="329" width="138" height="50" as="geometry"/></mxCell><mxCell id="8" value="" style="endArrow=classic;html=1;rounded=0;exitX=0;exitY=0.5;exitDx=0;exitDy=0;entryX=0.5;entryY=0;entryDx=0;entryDy=0;" parent="1" source="5" target="6" edge="1"><mxGeometry width="50" height="50" relative="1" as="geometry"><mxPoint x="316" y="274" as="sourcePoint"/><mxPoint x="366" y="224" as="targetPoint"/></mxGeometry></mxCell><mxCell id="9" value="false" style="edgeLabel;html=1;align=center;verticalAlign=middle;resizable=0;points=[];" parent="8" vertex="1" connectable="0"><mxGeometry x="-0.2205" y="2" relative="1" as="geometry"><mxPoint as="offset"/></mxGeometry></mxCell><mxCell id="10" value="" style="endArrow=classic;html=1;rounded=0;exitX=0.425;exitY=1.017;exitDx=0;exitDy=0;exitPerimeter=0;entryX=0.441;entryY=-0.007;entryDx=0;entryDy=0;entryPerimeter=0;" parent="1" source="6" target="7" edge="1"><mxGeometry width="50" height="50" relative="1" as="geometry"><mxPoint x="307" y="309" as="sourcePoint"/><mxPoint x="357" y="259" as="targetPoint"/></mxGeometry></mxCell><mxCell id="11" value="" style="endArrow=classic;html=1;rounded=0;exitX=1;exitY=0;exitDx=0;exitDy=0;" parent="1" source="7" target="5" edge="1"><mxGeometry width="50" height="50" relative="1" as="geometry"><mxPoint x="219" y="337" as="sourcePoint"/><mxPoint x="269" y="287" as="targetPoint"/></mxGeometry></mxCell><mxCell id="12" value="&lt;b&gt;printing itteration amount&lt;/b&gt;" style="rounded=1;whiteSpace=wrap;html=1;" parent="1" vertex="1"><mxGeometry x="342" y="239" width="120" height="30" as="geometry"/></mxCell><mxCell id="13" value="" style="endArrow=classic;html=1;rounded=0;exitX=1;exitY=0.5;exitDx=0;exitDy=0;entryX=0.5;entryY=0;entryDx=0;entryDy=0;" parent="1" source="5" target="12" edge="1"><mxGeometry width="50" height="50" relative="1" as="geometry"><mxPoint x="264" y="325" as="sourcePoint"/><mxPoint x="314" y="275" as="targetPoint"/><Array as="points"/></mxGeometry></mxCell><mxCell id="14" value="true" style="edgeLabel;html=1;align=center;verticalAlign=middle;resizable=0;points=[];" parent="13" vertex="1" connectable="0"><mxGeometry x="-0.3189" y="4" relative="1" as="geometry"><mxPoint as="offset"/></mxGeometry></mxCell><mxCell id="17" value="" style="endArrow=classic;html=1;rounded=0;exitX=0.5;exitY=1;exitDx=0;exitDy=0;entryX=0.5;entryY=0;entryDx=0;entryDy=0;" parent="1" source="4" target="5" edge="1"><mxGeometry width="50" height="50" relative="1" as="geometry"><mxPoint x="84" y="193" as="sourcePoint"/><mxPoint x="134" y="143" as="targetPoint"/></mxGeometry></mxCell></root></mxGraphModel></diagram></mxfile>